<?xml version="1.0" encoding="UTF-8"?>
<!DOCTYPE svg PUBLIC "-//W3C//DTD SVG 1.1//EN" "http://www.w3.org/Graphics/SVG/1.1/DTD/svg11.dtd">
<!-- Creator: CorelDRAW -->
<svg xmlns="http://www.w3.org/2000/svg" xml:space="preserve" width="67.7332mm" height="67.7332mm" version="1.1" style="shape-rendering:geometricPrecision; text-rendering:geometricPrecision; image-rendering:optimizeQuality; fill-rule:evenodd; clip-rule:evenodd"
viewBox="0 0 6773.32 6773.32"
 xmlns:xlink="http://www.w3.org/1999/xlink"
 xmlns:xodm="http://www.corel.com/coreldraw/odm/2003">
 <defs>
  <style type="text/css">
   <![CDATA[
    .str0 {stroke:#FEFEFE;stroke-width:16.93;stroke-miterlimit:22.9256}
    .str1 {stroke:#373435;stroke-width:20;stroke-miterlimit:22.9256}
    .fil42 {fill:#373435}
    .fil5 {fill:#282A2E}
    .fil41 {fill:#2E6B8B}
    .fil20 {fill:#35383D}
    .fil28 {fill:#36393E}
    .fil29 {fill:#393D42}
    .fil10 {fill:#3C8EB9}
    .fil31 {fill:#447FA1}
    .fil34 {fill:#499BC6}
    .fil2 {fill:#499CC8}
    .fil21 {fill:#4B9DC9}
    .fil33 {fill:#577382}
    .fil39 {fill:#9A784B}
    .fil7 {fill:#9BD6F1}
    .fil32 {fill:#9C7A4E}
    .fil13 {fill:#A3A68C}
    .fil36 {fill:#AAABAB}
    .fil22 {fill:#B3BBBC}
    .fil23 {fill:#BFC5C5}
    .fil0 {fill:#CAD4D7}
    .fil6 {fill:#CDD5D8}
    .fil9 {fill:#D7D4D2}
    .fil35 {fill:#DBA967}
    .fil30 {fill:#DBAA6A}
    .fil27 {fill:#DC824A}
    .fil14 {fill:#DCC4AF}
    .fil16 {fill:#E0B992}
    .fil40 {fill:#E25C08}
    .fil26 {fill:#E2DED8}
    .fil17 {fill:#E38C56}
    .fil11 {fill:#E5C699}
    .fil24 {fill:#E6E6CF}
    .fil38 {fill:#E8925D}
    .fil25 {fill:#E8945F}
    .fil15 {fill:#E9EDEE}
    .fil12 {fill:#EAD9C6}
    .fil19 {fill:#EBC9A5}
    .fil4 {fill:#EF8620}
    .fil18 {fill:#F3A45A}
    .fil1 {fill:#F3D1A2}
    .fil3 {fill:#F8F8F1}
    .fil8 {fill:#FEB85A}
    .fil37 {fill:#FEB85D}
   ]]>
  </style>
 </defs>
 <g id="Layer_x0020_1">
  <metadata id="CorelCorpID_0Corel-Layer"/>
  <path class="fil0" d="M2280.8 2200.39l-6.21 -0.08 -699.1 -0.92c-205.73,280.76 -361.71,727.34 -364.88,1170.69 -2.53,354.99 71.99,639.85 213.27,942.01l135.65 247.16c87.38,-1.18 627.29,-12.99 663.54,4.87 -1.52,35.23 -31.23,32.06 -118.58,56.37l-403.5 117.74c143.08,213.02 509.66,472.65 772.35,586.43 22.93,9.93 44.96,20.21 70.7,29.84 51.08,19.12 47.42,13.88 51.03,34.31 19.91,-14.73 47.37,-51.72 46.16,-81.3 -1.57,-38.23 -36.05,-24.66 -5.93,-97.76 25.58,-62.07 60.83,-116.93 81.68,-181.33l-383.03 1.53 2.2 -479.71 580.19 0.55 4.71 9.62c47.55,-42.38 76.12,-240.64 71.71,-318.66 -13.78,-2.03 -535.89,-209.25 -548.19,-218.15 -54.68,-16.29 -116.55,-71.91 -140.49,-107.8 -97.41,-145.99 126.28,-351.58 214.37,-451.53 75.13,-85.24 404.06,-419.55 507.88,-462.68 23.85,-23.97 60.88,-37.71 81.64,-69.14 -30.67,-2.66 -40.51,-0.71 -64.69,-15.46l15.2 -32.14c-56.49,4.44 -283.88,8.46 -330,-2.81 -15.35,-42.85 42.91,-155.07 60.63,-199.06 58.16,-144.36 101.64,-211.44 195.39,-330.78 45.13,-57.46 56.57,-158.36 41.67,-192.12 -14.13,-32.01 29.35,-2.04 -17.5,-19.94 -16.64,44.76 -301.97,282.57 -385.46,335.17 -104.14,65.59 -162.48,79.5 -223,-33.1 -41.66,-77.5 -87.27,-156.84 -119.41,-241.82z"/>
  <path class="fil0" d="M4192.09 2100.94c-3.05,148.36 116.28,387.78 180.17,548.04 18.03,45.21 36.42,63.81 0.67,97.91 -38.57,36.79 -146.58,106.6 -160.53,122.72l4.41 126.93c-13.58,287.21 -89.85,404.75 -206.85,598.42 -135.27,223.91 -331.15,413.03 -353.96,451.46 29.27,39.83 143.74,88.56 179.86,124.41 26.31,26.12 12.19,30.31 18.89,72.96l197.54 128.73c17.53,-36.28 83.69,-40.11 125.33,-41.65 14.97,48.3 -2.3,1.1 16.02,22.99 1.07,-34.09 24.73,-17.13 64.26,-12.83l95.13 4.44c31.71,59.12 32.55,129.57 20.44,202.38l347.07 1.15 374.12 0.12 9.37 -1.21c12.64,-37.12 72.75,-125.01 96.69,-171.3 26.62,-51.46 70.05,-130.77 82.93,-184.76l34.62 4.32 -46.28 -17.38c-23.23,-7.35 -38.22,-20.83 -54.06,-36.98 -140.2,-142.89 27.48,-367.62 178.52,-300.67l3.43 2.36c14.5,-138.6 41.45,-248.59 44.99,-398.14 1.69,-71.28 -0.23,-139.19 -4.38,-208.7 -3.94,-66.12 -19.22,-140.41 -20.04,-201.29 -52.48,-20.36 -80.52,15.88 -125.66,40.78 -72.27,39.87 -20.91,72.09 -66.5,109.87 -23.43,14.29 -88.88,11.49 -117.24,3.91 -42.58,-35.75 -6.81,-71.72 -53.94,-106.21 -165.21,-120.88 -158.69,13 -214,-52.91 -7.49,-8.93 -20.52,-33.61 -28.74,-47.09 -16.74,-27.49 -16.56,-23.81 -17.72,-58.42 55.02,-48.73 64.59,-40.89 64.63,-131.36 0.04,-92.87 -11.54,-79.82 -64.17,-131.68 0.84,-39.58 32.94,-92.06 56.85,-118.12 50.97,-8.71 52.49,12.35 92.06,12.38 19.35,0.02 120.89,-48.85 133.28,-79.22 14.2,-34.78 7.82,-54.45 27.64,-84.3l109.35 0.98c-35.54,-22.34 -11.19,7.1 -36.19,-34.84 -117.83,-197.67 -188.76,-301.83 -356.98,-469.56 -31.02,-30.94 -142.44,-132.1 -147.84,-148.7 -73.92,18.16 -154.45,34.32 -233.7,48.07 -51.63,8.95 -201.18,24.79 -237.99,39.57l-11.5 272.42z"/>
  <path class="fil1" d="M1938.85 1675.62c12.28,69.23 -71.61,47.42 -132.6,47.39 -43.36,-0.03 -156.46,15.65 -176.23,-14.66 -36.01,-55.18 97.69,-39.69 126.13,-39.67 49.98,0.03 144.47,-5.2 182.7,6.94zm-181 -59.02c-31.75,-66.4 77.1,-48.2 88.05,-38.66 47.27,41.19 -43.39,58.21 -88.05,38.66zm-36.32 0c-20.26,19.02 -186.63,14.53 -123.38,-39.64 15.77,-13.51 182.97,-16.31 123.38,39.64zm159.59 -99.01c-29.2,9.82 -69.79,9.26 -99.98,0.41 -3.7,-46 1.38,-47.2 50.16,-47.23 48.18,-0.03 53.46,0.64 49.82,46.82zm-131.82 2.06l-51.44 7.2 -100.36 -1.27 -42.99 -6.16 -1.78 -40.09 44.52 -8.84 108.8 1.47c40.47,0 46.82,14.76 43.25,47.69zm140.45 -92.98c-55.97,0 -94.57,7.49 -124.53,-10.47l-4.37 -36.38c44.26,-7.72 139,-17.46 175.76,5.19 3.98,39.12 -7.8,41.66 -46.86,41.66zm-257.64 -18.82c-10.94,-47.05 96,-50.4 103.9,-14.37 10.34,47.11 -97.31,42.74 -103.9,14.37zm-228.59 -26.98c28.88,-8.38 199.64,-27.82 198.86,18.34 -0.82,48.6 -165,30.04 -198.29,20.01l-0.57 -38.35zm-23.12 -204.73c89.53,0 136.82,-12.82 123.81,48.33 -44.02,5.69 -133.44,14.88 -171.24,-3.33 -9.19,-41.07 9.3,-45 47.43,-45zm596.47 31.31c9.93,-45.82 105.85,-49.49 104.44,8.35 -24.57,19.82 -78.98,30.97 -104.44,-8.35zm-212.02 8.35c-2.41,-38.35 12.72,-39.6 49.75,-39.6l142.7 5.11c12.15,47.41 -0.38,49.21 -50.85,49.21 -67.2,0 -113.07,9.79 -141.6,-14.72zm-75.5 -39.68c46.53,0 57.96,-4.07 56.45,40.07 -30.9,21.42 -73.71,21.73 -105.39,0.22 0.75,-40.13 7.57,-40.29 48.94,-40.29zm250.5 -98.62c119.33,0 140.69,-12.04 128.91,50.41 -67.24,6.32 -105.83,9.46 -172.32,-2.4 -6.47,-38.5 -0.08,-48.01 43.41,-48.01zm-304.37 10.22c49.39,-17.5 202.87,-20.2 236.07,4.08l-3.96 34.67c-43.67,10.66 -196.84,13.04 -236.31,-4.96l4.2 -33.79zm-229.45 -10.67c33.81,-0.2 60.16,-5.32 64.85,23.52 8.93,54.83 -140.88,31.01 -175.14,24.34 -10.98,-64.82 46.7,-47.48 110.29,-47.86zm169.46 1122.34l163.96 -226.73 28.7 -10.51c30.42,-46.65 25.46,-7.86 42.69,-75.29 10.17,-39.81 9.18,-11.14 57.92,-33.38 26.31,-12 28.69,-20.25 31.24,-48.95 5.19,-47.87 23,-38.16 68.02,-36.73 18.38,-16.5 26.4,-19.62 33.66,-44.92 -32.48,-1.71 -44.32,-8.82 -39.18,-41.97 25.98,-17.59 25.42,-12.94 60.57,-12.58 -24.47,-15.46 -140.62,-33.01 -32.99,-168.56 24.32,-30.64 24.05,-19.12 74.77,-22.87 -20.25,-74.31 -107.34,-114.39 -64.87,-174.2 22.27,4.96 152.72,159.53 181.05,189.58 33.76,35.8 26.46,46.71 49.24,79.82 93.15,-36.49 257.45,-153.4 369.26,-169.23l-1.29 -9.92c-200.12,-568.57 -149.5,-495.97 -416.25,-495.97l-1227.43 0c-87.86,0 -228.43,-19.04 -291,18.7 -14.59,66.85 245.12,695.7 285.93,806.23 49.95,135.26 101.63,265.83 150.89,400.02 35.68,97.19 94.01,77.11 196.52,77.08 92.8,-0.03 185.84,-0.6 278.59,0.38z"/>
  <path class="fil2" d="M3634.88 1504.86c-20.54,-17.25 -17.33,-2.92 -14.52,-35.51l37.63 -0.15c2.74,28.01 2.45,27.38 -23.11,35.66zm127.13 -239.68c31.99,19.31 -44.46,93.74 -56.38,105.01 -31.34,29.62 -83.35,55.76 -123.48,76.54 -2.77,39.1 -1.2,65.75 19.33,94.96 56.76,6.88 47.6,-25.81 85.71,-10.51 16.46,243.68 23.48,483.86 41.71,727.33 17.47,233.21 59.3,451.97 96.7,677l17.51 99.47c80.92,5.12 293.9,-139.33 369.29,-165.37 13.95,-16.12 121.96,-85.93 160.53,-122.72 35.75,-34.1 17.36,-52.7 -0.67,-97.91 -63.89,-160.26 -183.22,-399.68 -180.17,-548.04 -16.88,22.29 -12.57,-29.05 -14.43,28.41 -0.27,-5.74 -46.54,-92.75 -56.06,-114.09 -17.85,-39.99 -37.51,-90.8 -51.95,-131.93 -44.56,-126.93 -78.16,-197.24 53.94,-216.42 -6.14,-75.34 -7.03,-97.12 11.9,-167.62 -49.66,-19.11 -80.11,-43.18 -122.55,-67.7 -36.46,-21.05 -100.62,-39.91 -88.16,-92.23l-98.72 -12.46 -20.99 -72.57 -43.98 -11.39 0.92 22.24z"/>
  <path class="fil3" d="M3432.95 1342.4c-15.01,66.84 -25.12,156.92 -35.23,228.18 -9.5,66.88 -40.62,164.24 -44.9,218.71 -10.61,95.75 -117.83,452.5 -156.56,591.7l-23.53 72.08c-0.69,-1.36 -2.7,4.72 -4.39,6.83 -13.16,82.6 -114.77,386.05 -109.86,424.95l-15.2 32.14c24.18,14.75 34.02,12.8 64.69,15.46 251.61,90.52 233.32,140.89 273.84,-7.24 9.55,-34.93 19.34,-70.64 28.67,-105.34 13.45,-50.02 35.62,-162.85 57.4,-198.77 38.9,81 70.38,346.79 113.97,393.14 45.18,22.37 191.18,-57.5 243.75,-78.73 -37.4,-225.03 -79.23,-443.79 -96.7,-677 -18.23,-243.47 -25.25,-483.65 -41.71,-727.33 -38.11,-15.3 -28.95,17.39 -85.71,10.51 -20.53,-29.21 -22.1,-55.86 -19.33,-94.96 40.13,-20.78 92.14,-46.92 123.48,-76.54 11.92,-11.27 88.37,-85.7 56.38,-105.01 -25.03,55.93 -90.55,81.14 -142.03,119.41 -48.79,36.27 -51.28,105.13 -82.57,152.22 -8.73,13.14 -3.27,6.41 -13.6,15.64 -27.46,-116.4 -21.28,-137.44 -90.86,-210.05z"/>
  <path class="fil4 str0" d="M1436.95 4627.32l287.37 0.89c-9.27,9.22 -2.68,4.82 -16.39,12.35l-45.61 13.16c-21.75,4.64 -38.29,8.65 -60.78,14.71 -43.91,11.83 -83.58,25.28 -131.42,27.74l-33.17 -68.85zm-546.51 -152.4c-74.14,14.01 -121.86,-97.61 -87.38,-128.61 38.84,-34.91 105.6,52.43 87.38,128.61zm810.55 263.31l403.5 -117.74c87.35,-24.31 117.06,-21.14 118.58,-56.37 -36.25,-17.86 -576.16,-6.05 -663.54,-4.87l-165.89 1.26c-11.87,-38.92 -229.08,-475.27 -276.44,-492.86 -51.03,-18.96 -719.47,-14.03 -748.06,2.9 -32.91,35.46 40.15,137.78 62.69,181.27l266.92 492.82c15.9,23.5 0,18.71 29.92,39.64 17.94,8.14 679.68,8.85 768.53,2.96 68.87,-4.57 136.04,-34.41 203.79,-49.01z"/>
  <path class="fil4 str0" d="M5769.89 1954.35c262.19,-70.01 334.93,304.52 112.41,365.43 -258.26,70.69 -344.46,-303.47 -112.41,-365.43zm-465 6.1c84.48,71.87 82.38,34.77 84.97,182.21 2.88,163.96 -21.73,87.83 -87.3,183.68 -2.7,54.41 54.13,133.08 83.42,166.28 62.1,3.97 90.36,-28.07 135.42,-24.53 30.67,2.4 75.09,40.13 110.63,57.1 53.45,25.53 64.43,24.73 76.23,89.52 17.88,98.11 26.2,87.33 156.04,87.33 72.04,0 67.35,-24.32 78.61,-88.49 10.12,-57.7 30.31,-68.33 77.04,-89.83 35.68,-16.41 79.94,-54.59 111.64,-55.84 48.69,-1.94 86.69,41.03 133.99,19.34 16.25,-8.21 100.76,-121.5 77.17,-171.01 -11.72,-24.62 -51.61,-39.11 -70.34,-64.09 -19.5,-26.03 -20.71,-200.77 0.15,-227.18 12.61,-15.96 59.23,-51.14 68.16,-66.2 25.88,-43.63 -51.49,-151.75 -75.62,-174.62 -64.42,-13.9 -82.37,26.54 -132.99,23.38 -29.58,-1.85 -78.15,-42.54 -109.68,-56.79 -52.96,-23.95 -67.06,-22.99 -78.79,-87.74 -18.16,-100.34 -18.83,-91 -154.49,-91 -112.97,0 -52.48,75.64 -97.92,138.63 -16.32,22.61 -43.27,29.05 -72.87,43.98 -27.12,13.68 -49.65,34.12 -72.61,44.76 -70.35,32.56 -121.08,-54.08 -171.41,-5.26 -27.84,27.01 -77.06,115.78 -69.45,166.37z"/>
  <path class="fil5" d="M3107.97 2932.45c-20.76,31.43 -57.79,45.17 -81.64,69.14 -103.82,43.13 -432.75,377.44 -507.88,462.68 -88.09,99.95 -311.78,305.54 -214.37,451.53 23.94,35.89 85.81,91.51 140.49,107.8 12.3,8.9 534.41,216.12 548.19,218.15 4.41,78.02 -24.16,276.28 -71.71,318.66 -3.94,39.53 -178.99,438.77 -204.07,468.01 -20.85,64.4 -56.1,119.26 -81.68,181.33 -30.12,73.1 4.36,59.53 5.93,97.76 1.21,29.58 -26.25,66.57 -46.16,81.3 -4.16,27.6 -22.5,49.28 -40.11,74.24 -16.25,23.05 -11.51,14.04 -27.32,30.63 -23.77,24.95 -11.94,-1.44 -22.81,35.95 24.03,7.19 37.63,22.06 53.14,44.83 4.85,17.91 -16.05,29.02 -8.16,51.68 3.35,9.63 8.9,3.13 21.39,59.53 26.08,117.83 16.32,108.25 53.38,104.53 35.05,-17.35 32.23,-40.92 56.64,-83.92l177.11 -214.84c22.89,-7.61 122.51,45.31 128.18,20.76 28.87,-6.68 6.02,13.73 28.42,-19.08 32.23,-78.11 69.64,-153.85 104.42,-233.9 23.15,-53.29 77.45,-203.78 109.95,-234.36 1.37,-28.42 62.32,-180.12 78.6,-206.99 12.76,-47.94 35.2,-91.43 48.23,-140.49 13.19,-49.73 1.06,-126.96 20.5,-171.03 -3.65,-54.6 3.15,-68.71 57.81,-70.15 29.21,29.52 155.65,80.15 195.68,109.37l54.51 13.17c9.99,-15.12 16.72,-21.51 27.27,-34.66 17.11,-21.35 14.75,-13.05 19.13,-34.99 44.96,3.07 85.78,35.25 129.25,50.26 6.8,12.97 15.51,13.72 31.67,25.98 16.44,12.47 25.23,21.72 37.06,31.9 41.2,33.67 38.47,70.35 98.31,86.98 29.9,-20.56 39.69,-39.26 66.89,-61.26 98.21,-79.42 9.46,-102.59 -8.03,-158.95 -13.65,-43.98 4.31,-69.95 -33.89,-91.48l-197.54 -128.73c-6.7,-42.65 7.42,-46.84 -18.89,-72.96 -36.12,-35.85 -150.59,-84.58 -179.86,-124.41 22.81,-38.43 218.69,-227.55 353.96,-451.46 117,-193.67 193.27,-311.21 206.85,-598.42l-4.41 -126.93c-75.39,26.04 -288.37,170.49 -369.29,165.37l-17.51 -99.47c-52.57,21.23 -198.57,101.1 -243.75,78.73 -43.59,-46.35 -75.07,-312.14 -113.97,-393.14 -21.78,35.92 -43.95,148.75 -57.4,198.77 -9.33,34.7 -19.12,70.41 -28.67,105.34 -40.52,148.13 -22.23,97.76 -273.84,7.24zm76.05 866.13c-32.13,-10.76 -75.92,-18.66 -109,-26.95 -36.14,-9.06 -95.69,-17.22 -117.32,-35.9l351.57 -180.36c18.37,10.84 20.45,-17.36 5.51,27.19l-98.17 214.27 -32.59 1.75z"/>
  <path class="fil6" d="M4107.64 5059.38c-26.74,0.61 -22.3,-1.74 -39.04,-21.48 -39.09,-26.3 -154.1,-8.19 -208.28,-8.19 -72.36,0 -144.73,0 -217.09,0 -61.25,0 -383.24,8.74 -413.93,-4.85 -32.5,30.58 -86.8,181.07 -109.95,234.36 -34.78,80.05 -72.19,155.79 -104.42,233.9 53.93,-15.23 194.46,9.01 260.9,10.84 362.84,9.99 772.14,-84.36 1077.85,-262.93 179.6,-104.91 177.42,-119.34 311.38,-210.52 7.98,-10.93 3.62,-5.34 13.23,-15.18 1.31,-1.34 11.71,-10.91 13.73,-12.7 10.48,-9.29 17.45,-14.71 26.63,-22.81 91.76,-81.04 54.95,-54.93 228.06,-55.95l-1.3 2.93 -671 -2.57c-38.72,44.24 -50.1,115.42 -104.26,142.62 -57.54,28.89 -62.31,-7.21 -62.51,-7.47z"/>
  <path class="fil2" d="M2799.22 1907.71l67.84 181.67c11.5,-43.34 147.89,-175.32 157.29,-211.78 11.88,-46.05 -17.4,-82 23.39,-112.45l2.7 118.68c-16.7,-12.93 2.09,-62.86 16.64,-81.64 19.11,22.98 -5.46,140.14 -8.94,170.33 -3.72,32.28 -9.04,57.97 -10.27,90.03 -2.98,77.53 -23.73,53.9 -39.2,77.59 46.85,17.9 3.37,-12.07 17.5,19.94 14.9,33.76 3.46,134.66 -41.67,192.12 -93.75,119.34 -137.23,186.42 -195.39,330.78 -17.72,43.99 -75.98,156.21 -60.63,199.06 46.12,11.27 273.51,7.25 330,2.81 -4.91,-38.9 96.7,-342.35 109.86,-424.95 4.54,-77.2 9.54,-125.3 5.38,-206.25 -3.21,-62.79 -14.8,-143.78 12.56,-192.08 26.86,-47.43 55.64,-85.97 83.44,-133.64 14.5,-24.87 26.76,-43.07 40.73,-67.98 12.86,-22.94 23,-51.62 42.37,-70.66 4.28,-54.47 35.4,-151.83 44.9,-218.71 10.11,-71.26 20.22,-161.34 35.23,-228.18l2.11 -26.23c-212.7,113.55 -21.95,65.1 -156.55,144.51 -166.39,98.16 -83.36,40.43 -210.35,98.17 -91.67,41.68 -99.42,71.05 -149.1,160.21 -19.81,35.53 -34.15,64.94 -51.43,98.85 -24.77,48.59 -44.43,53.27 -68.41,89.8z"/>
  <path class="fil7 str0" d="M392.46 2989.12c-211.86,28.83 -284.34,251.24 -242.25,383.73 37.88,119.23 208.41,307.54 387.06,255.84 133.02,-38.5 293.68,-197.29 258.41,-391.66 -15.3,-84.33 -72.68,-160.63 -127.33,-198.61 -70.57,-49.03 -175.72,-62.93 -275.89,-49.3z"/>
  <path class="fil8 str0" d="M5298.36 2835.68c-56.25,165.42 -317.39,88.31 -257.94,-88.63 19.34,-57.55 95.36,-111.58 175.52,-81.22 54.99,20.82 109.63,89.84 82.42,169.85zm122.09 199.69c40.53,14.91 60.17,21.73 83.77,-17.16 97.24,-160.27 -27.23,-47.41 -27.17,-224.24 0.05,-127.54 21.19,-71.31 62.35,-133.63 1.02,-41.57 -35.28,-97.62 -59.19,-117.89 -48.17,-4.1 -54.74,15.32 -91.25,14.05 -29.63,-1.02 -47.74,-20.89 -71.83,-33.59 -114.64,-60.47 -31.7,-99.84 -100.84,-128.93l-109.35 -0.98c-19.82,29.85 -13.44,49.52 -27.64,84.3 -12.39,30.37 -113.93,79.24 -133.28,79.22 -39.57,-0.03 -41.09,-21.09 -92.06,-12.38 -23.91,26.06 -56.01,78.54 -56.85,118.12 52.63,51.86 64.21,38.81 64.17,131.68 -0.04,90.47 -9.61,82.63 -64.63,131.36 1.16,34.61 0.98,30.93 17.72,58.42 8.22,13.48 21.25,38.16 28.74,47.09 55.31,65.91 48.79,-67.97 214,52.91 47.13,34.49 11.36,70.46 53.94,106.21 28.36,7.58 93.81,10.38 117.24,-3.91 45.59,-37.78 -5.77,-70 66.5,-109.87 45.14,-24.9 73.18,-61.14 125.66,-40.78z"/>
  <path class="fil4 str0" d="M5866.97 3034.18c151.9,-33.78 208.56,215.66 43.88,248.84 -159.87,32.21 -222.55,-209.1 -43.88,-248.84zm-243.32 -148.96c0,89.46 51.33,38.36 -1.75,150.48 -24.7,52.16 -6.56,54.34 -73.32,77.59 -38.07,13.25 -18.57,-2.39 -36.7,23.98 -10.2,31.54 -0.58,88.25 8.3,117.66 84.86,24.14 72.41,-11.1 125.29,66.7 68.13,100.24 25.84,37.56 28.14,149.52 25.96,18.63 75.64,46.53 117.32,47.78 48.32,-51.49 28.07,-65.34 114.63,-72.36 130,-10.56 68.67,21.13 142.44,48.03 27.37,-5.58 80.82,-42.02 95.88,-64.65 12.16,-70.68 -50.44,-35.08 2.11,-145.55 55.89,-117.48 37.75,-39.66 111.39,-98.02 10.2,-27.3 6.11,-91 -10.75,-113.06 -26.72,-35.67 -32.13,-9.51 -76.95,-25.46 -25.98,-9.25 -31.13,-29.41 -47.53,-52.53 -68.52,-96.55 -20.09,-47.57 -26.01,-142.94 -20.35,-18.63 -83.64,-63.48 -119.2,-48.09 -46.59,20.18 -0.26,56.78 -112,67.33 -23.97,2.27 -48.85,7.95 -71.41,1.3 -78.32,-23.04 -9.68,-105.02 -169.88,12.29z"/>
  <path class="fil9" d="M2716.98 5028.42c25.08,-29.24 200.13,-428.48 204.07,-468.01l-4.71 -9.62 -580.19 -0.55 -2.2 479.71 383.03 -1.53z"/>
  <path class="fil6" d="M2598.24 1392.95l1.29 9.92 192.26 504.84 7.43 0c23.98,-36.53 43.64,-41.21 68.41,-89.8 17.28,-33.91 31.62,-63.32 51.43,-98.85 49.68,-89.16 57.43,-118.53 149.1,-160.21 126.99,-57.74 43.96,-0.01 210.35,-98.17 134.6,-79.41 -56.15,-30.96 156.55,-144.51 0.41,-4.53 1.83,-20.76 2.67,-24.59 3.14,-14.38 3.61,-10.91 7.83,-17.88l-2.81 -26.04 -14.05 24.91c-218.77,-11.91 -434.65,9.86 -640.15,65.48 -61.7,16.7 -133.35,45.63 -190.31,54.9z"/>
  <path class="fil10" d="M4144.22 1663.45c-0.84,-42.69 -14.31,-112.05 14.65,-141.74 -26.18,-28.68 142.59,85.67 161.31,112.6 -55.05,25.44 -88.56,52.56 -175.96,29.14zm-202.22 -354.43c-6.48,23.52 -0.35,12.91 -17.22,30.34 -12.46,52.32 51.7,71.18 88.16,92.23 42.44,24.52 72.89,48.59 122.55,67.7 -18.93,70.5 -18.04,92.28 -11.9,167.62 -132.1,19.18 -98.5,89.49 -53.94,216.42 14.44,41.13 34.1,91.94 51.95,131.93 9.52,21.34 55.79,108.35 56.06,114.09 1.86,-57.46 -2.45,-6.12 14.43,-28.41l11.5 -272.42c36.81,-14.78 186.36,-30.62 237.99,-39.57 79.25,-13.75 159.78,-29.91 233.7,-48.07 56.19,-34.9 166.58,-82.72 115.44,-173.53 -107.34,35.63 -131.15,34.56 -228.28,-9.95 -64.37,-29.51 -129.65,-55.77 -196.55,-86.8 -91.8,-42.58 -321.75,-173.7 -391.52,-189.46l-7.79 26.87 -24.58 1.01z"/>
  <path class="fil11" d="M2230.27 1572.1c12.72,52.55 54.34,133.29 84.26,168.81 40.71,20.1 96.03,166.93 126.85,209.08l158.11 169.42c25.99,-13.19 180.85,-185.87 192.3,-211.7l-192.26 -504.84c-111.81,15.83 -276.11,132.74 -369.26,169.23z"/>
  <path class="fil12" d="M5590.86 4926.42l725.54 0.63 3.3 -74.37 -407.56 -2.13 2.15 -202.03 401.13 -1.29 0.62 -99.82 -443.39 1.33c-71.7,0.03 -129.07,14.48 -128.72,-18.65 -52.97,182.04 -139.88,269.62 -286.96,361.36 -2.83,1.76 -12.24,7.91 -14.97,10.2 -12.58,10.52 -5.86,3.77 -12.47,13.16 60.16,50.67 67.89,69.24 188.3,-29.47l104.94 -95.22c-26.18,67.91 -96.09,84.61 -131.91,136.3z"/>
  <path class="fil12" d="M4945.41 4926.8l397.18 -2.67 -22.76 -75.3c69.71,-43.14 125.28,-72.87 179.32,-123.81 40.82,-38.5 93.65,-110.14 123.06,-177.52l-518.18 0.41 -9.37 1.21c-12.66,36.03 -82.52,124.96 -107.74,156.22 -26.03,32.29 -42.33,40.44 -43.89,91.98 -1.2,39.7 -0.55,90.08 2.38,129.48z"/>
  <path class="fil11" d="M2141 1974.39c-1.53,52.07 -17.16,44.44 -67.04,44.07 -38.52,-0.29 -79.21,2.03 -110.85,-6.54 -7.16,-47.27 10.54,-50.88 59.61,-51.09 47.88,-0.21 86.52,-5.12 118.28,13.56zm-139.32 -251.51c-7.26,25.3 -15.28,28.42 -33.66,44.92 44.39,48.26 -27.63,67.22 -68.02,36.73 -2.55,28.7 -4.93,36.95 -31.24,48.95 -48.74,22.24 -47.75,-6.43 -57.92,33.38 -17.23,67.43 -12.27,28.64 -42.69,75.29 118.61,-4.26 176.33,-16.75 165.77,50.55 -42,9.81 -155.46,9.78 -197.12,-0.12l2.65 -39.92 -163.96 226.73 699.1 0.92c-19.09,-72.37 -76.31,-120.08 -101.85,-185.99l-6.63 -12.58 -25.11 -27.35 -28.24 -56.3c-94.91,4.14 -60.67,-75.64 18.98,-45.6l23.01 -21.3c-28.73,-60.56 -35.97,-115.06 -91.55,-144.21 -20.22,20.93 -24.34,16.39 -61.52,15.9z"/>
  <path class="fil10" d="M2867.06 2089.38c5.11,27.45 47.25,104.73 -42.24,110.03l-209.7 -0.58c6.63,45.85 12.56,111.77 -32.33,139.48 -1.83,-1.33 -3.96,-3.47 -5.01,-4.59l-91.95 -134.34 -205.03 1.01c32.14,84.98 77.75,164.32 119.41,241.82 60.52,112.6 118.86,98.69 223,33.1 83.49,-52.6 368.82,-290.41 385.46,-335.17 15.47,-23.69 36.22,-0.06 39.2,-77.59 1.23,-32.06 6.55,-57.75 10.27,-90.03 3.48,-30.19 28.05,-147.35 8.94,-170.33 -14.55,18.78 -33.34,68.71 -16.64,81.64l-2.7 -118.68c-40.79,30.45 -11.51,66.4 -23.39,112.45 -9.4,36.46 -145.79,168.44 -157.29,211.78z"/>
  <path class="fil13" d="M2154.75 1851.19l-23.01 21.3 6.95 33.82c-11.06,7.72 -10.28,5.83 -25.93,11.78l28.24 56.3 25.11 27.35c1.84,-58.07 53.48,-41.59 107.7,-40.81 46.68,0.67 102.59,-4.83 131.36,14.7 2.37,55.7 -34.55,42.94 -89.48,42.9 -47.44,-0.03 -96.21,3.31 -142.95,-4.21 25.54,65.91 82.76,113.62 101.85,185.99l6.21 0.08 205.03 -1.01 129.29 -0.55 209.7 0.58c89.49,-5.3 47.35,-82.58 42.24,-110.03l-67.84 -181.67 -7.43 0c-11.45,25.83 -166.31,198.51 -192.3,211.7l-158.11 -169.42c-30.82,-42.15 -86.14,-188.98 -126.85,-209.08 11.72,61.34 -3.59,86.58 -37.6,112.52 -26.98,20.57 -54.14,41.13 -96.33,45.8l-25.85 -48.04z"/>
  <path class="fil14" d="M4310.87 4775.26l-36.46 148.97 671 2.57c-2.93,-39.4 -3.58,-89.78 -2.38,-129.48 1.56,-51.54 17.86,-59.69 43.89,-91.98 25.22,-31.26 95.08,-120.19 107.74,-156.22l-374.12 -0.12c19.25,51.91 9.04,202.56 7.46,266.23l-422.31 -0.01 5.18 -39.96z"/>
  <path class="fil9" d="M3229.3 5024.86c30.69,13.59 352.68,4.85 413.93,4.85 72.36,0 144.73,0 217.09,0 54.18,0 169.19,-18.11 208.28,8.19l11.43 -9.72c1.28,-1.06 5.48,-1.62 6.54,-5.28 1.2,-4.18 4.99,-3.97 7.51,-5.93 -47.31,3.8 -16.44,4.64 -26.95,-10.31l6.31 -76.56 -268.03 -4.53 -2.05 -112.56 -495.46 4.86c-16.28,26.87 -77.23,178.57 -78.6,206.99z"/>
  <path class="fil14" d="M3630.12 4545.57l-254.39 4.09 0.9 -43.31c-19.44,44.07 -7.31,121.3 -20.5,171.03 -13.03,49.06 -35.47,92.55 -48.23,140.49l495.46 -4.86 0.95 -257.25c8.28,-0.02 20.47,0.34 24.44,-0.88 43.88,-13.56 10.95,1.24 31.53,-15.53 -43.47,-15.01 -84.29,-47.19 -129.25,-50.26 -4.38,21.94 -2.02,13.64 -19.13,34.99 -10.55,13.15 -17.28,19.54 -27.27,34.66l-54.51 -13.17z"/>
  <path class="fil2" d="M3974.37 1281.14c69.77,15.76 299.72,146.88 391.52,189.46 66.9,31.03 132.18,57.29 196.55,86.8 97.13,44.51 120.94,45.58 228.28,9.95 -21.53,-42.67 -123.76,-109.62 -166.3,-138.69 -94.37,-64.48 -418.63,-203.51 -557.74,-269.22 -4.83,-2.28 -25.6,-11.55 -29.4,-12.37 -1.71,-0.38 -4.2,-0.96 -5.86,-1.15l-22.09 3.22c2.5,45.69 -22.96,88.5 -34.96,132z"/>
  <path class="fil15" d="M5769.89 1954.35c-232.05,61.96 -145.85,436.12 112.41,365.43 222.52,-60.91 149.78,-435.44 -112.41,-365.43z"/>
  <path class="fil16" d="M4310.87 4775.26l-5.18 39.96 422.31 0.01c1.58,-63.67 11.79,-214.32 -7.46,-266.23l-347.07 -1.15 -62.6 227.41z"/>
  <path class="fil17" d="M3761.08 962.46c-13.58,17.45 -38.38,45.5 -56.16,50.27 -13.42,10.71 -3.48,8.74 -27.92,12.56 -5.02,0.79 -34.64,-0.18 -42.56,-0.02 -5.75,63.52 -58.42,87.57 -116.46,94.76l-5.45 -9.24c-33.71,9.42 -16.5,14.49 -58.28,16.61 14.98,-27.2 21.68,-2.2 14.37,-39.45 -77.44,31.86 -109,0.47 -100.91,-85.17l-40.57 -3.8 38.09 6.25c-30.4,133.16 58.56,69.53 76.57,207.92 30.4,-6.3 23.52,14.77 36.81,33.64l11.57 12.97c55.22,47 65.12,7.77 112.17,-17.87 70.34,-38.34 18.28,-29.67 55.35,-53.3 4.98,-94.09 49.83,-101.75 75.87,-125.42 8.93,-8.12 32.31,-47.68 36.5,-12.54 3.35,28.12 -3.91,33.75 -5.68,64.58 -1.73,30.03 1.38,60.49 -1.09,89.87 26.33,10.3 3.92,0.36 20.87,10.43 2.21,1.31 11.88,8.12 16.02,10.66 13.15,8.08 17.51,9.46 33.21,16.42 56.87,25.24 23.14,19.99 51.97,56.11 49.11,4.2 31.04,-16.03 56.63,10.32l24.58 -1.01 7.79 -26.87c12,-43.5 37.46,-86.31 34.96,-132 -68.14,-10.71 -44.18,-25.45 -110.31,-55.71 -1.46,-0.66 -4.45,-1.49 -6.29,-2.87l16.49 -120.31c-75.61,-62.97 -77.08,-40.68 -148.14,-7.79z"/>
  <path class="fil18" d="M2023.07 1668.33l34.01 3.79 6.12 34.86c55.58,29.15 62.82,83.65 91.55,144.21l25.85 48.04c42.19,-4.67 69.35,-25.23 96.33,-45.8 34.01,-25.94 49.32,-51.18 37.6,-112.52 -29.92,-35.52 -71.54,-116.26 -84.26,-168.81 -22.78,-33.11 -15.48,-44.02 -49.24,-79.82 -28.33,-30.05 -158.78,-184.62 -181.05,-189.58 -42.47,59.81 44.62,99.89 64.87,174.2 -50.72,3.75 -50.45,-7.77 -74.77,22.87 -107.63,135.55 8.52,153.1 32.99,168.56z"/>
  <path class="fil7 str0" d="M588.84 2549.85c-72.81,21.45 -153.57,110.77 -124.79,216.71 19.78,72.77 119.27,137.74 221.33,109.11 236.74,-66.41 101.67,-384.2 -96.54,-325.82z"/>
  <path class="fil3" d="M2063.87 5499.27c-4.66,41.28 14.85,54.06 32.3,71.98l212.71 202.06c30.2,38.73 27.64,59.3 80.05,61.33 -0.92,-39.04 -7.66,-79.1 5.34,-114.71 90.27,-41.58 100.27,51.15 116.19,125.35 24.49,5.47 75.1,17.14 97.08,17.9 16.68,-4.67 20.4,-2.4 26.21,-23.26 10.34,-37.1 9.63,-21.38 -9.17,-49.72 -37.06,3.72 -27.3,13.3 -53.38,-104.53 -12.49,-56.4 -18.04,-49.9 -21.39,-59.53 -7.89,-22.66 13.01,-33.77 8.16,-51.68 -15.51,-22.77 -29.11,-37.64 -53.14,-44.83 -22.28,-23.5 -22.71,-37.84 -67.1,-26.62 -0.76,0.19 -34.97,15.08 -35.53,15.5 -18.85,14.06 -10.82,-0.58 -13.78,21.66 15.41,31.9 64.57,37.26 49.64,89.41 -35.95,3.46 -34.93,-6.9 -45.57,-32.57l-7.84 12.03c-1.08,1.54 -2.68,3.98 -3.82,5.55 -1.08,1.48 -2.73,3.79 -3.73,5.11 -8.41,11.12 -0.45,4.7 -11.41,12.6 -33.2,-11.34 -39.37,-36.9 -75.15,-58 -10.33,27.34 12.79,12.53 -19.48,51.19 26.31,9.34 36.93,12.7 39.95,44.66 -45.48,15.49 -81.13,-62.53 -151.95,-129.14l-21.28 -24.5c-24.42,-27.13 -30.86,-23.5 -57.55,-39.73 5.25,44.7 1.24,6.01 -16.36,22.49z"/>
  <path class="fil7 str0" d="M5133.06 1026.75c-49.92,11.04 -77.03,-71.73 -122.56,-64.42 -5.61,10.07 -6.25,1.17 -4.68,19.18 3.36,38.46 55.54,46.72 66.33,111.52 -78.53,28.96 -128.25,-10.13 -133.17,47.4l133.4 21.88c-9.1,68.56 -77.96,78.91 -66.18,133.77 38.18,1.94 121.53,-98.19 126.59,-58.13l9.19 27.28c9.66,48.77 -6.22,76.97 29.28,96.1 32.93,-23.83 17.26,-56.19 27.02,-102.64l12.15 -30.03c45.76,-0.94 77.82,77.8 121.94,64.21 10.87,-28.79 -4.72,-35.01 -27.03,-60.71 -20.19,-23.27 -33.58,-31.54 -36.53,-70.27 37.14,-7.68 103.41,-5.09 132.38,-23.4 -3.78,-53.87 -80.11,-16.15 -130.23,-47.93 0.62,-57.66 92.39,-94.34 60.53,-124.93 -23.99,-23.04 -71.13,60.6 -126.18,64.56 -22.4,-74.45 2.24,-111.62 -34.05,-133.03 -42.38,22.04 -14.33,86.89 -38.2,129.59z"/>
  <polygon class="fil19" points="6319.7,4852.68 6315.42,4647.23 5914.29,4648.52 5912.14,4850.55 "/>
  <path class="fil3" d="M4052.29 4372.52c38.2,21.53 20.24,47.5 33.89,91.48 17.49,56.36 106.24,79.53 8.03,158.95 -27.2,22 -36.99,40.7 -66.89,61.26 -59.84,-16.63 -57.11,-53.31 -98.31,-86.98 -11.4,27.06 -34.26,61.13 -10.6,91.78 10.02,12.99 22.03,18.07 38.46,28.9 34.62,22.82 17.32,-0.64 29.2,30.39l74.65 7.31c9.38,30.69 13.52,55.72 22.38,84.59l-14.99 12.83c3.58,21.11 4.61,24.06 12.63,38.79 8.38,10.96 7.72,10.01 21.73,20.42 40.38,-16.64 39.27,-25.91 74.17,10.92 -15.58,29.19 -53.31,23.93 -82.56,93.81 -2.52,1.96 -6.31,1.75 -7.51,5.93 -1.06,3.66 -5.26,4.22 -6.54,5.28l-11.43 9.72c16.74,19.74 12.3,22.09 39.04,21.48 57.12,-7.54 73.68,-49.9 92.48,-113.85 17.43,-59.27 35.45,-116.45 33.85,-183.33 -39.23,6.39 -74.69,20.89 -114.8,18.2 -57.65,-94.6 44.59,-91.36 85.32,-133.45 -9.38,-55.07 -26.21,-86.85 -23.91,-149.01 1.87,-50.45 16.55,-91.54 13.06,-144.08 -18.32,-21.89 -1.05,25.31 -16.02,-22.99 -41.64,1.54 -107.8,5.37 -125.33,41.65z"/>
  <path class="fil20" d="M2517.83 6075.4c4.93,-26.85 -79.64,-86.12 -108.95,-109.96 -58.24,-47.37 -67.18,-62.37 -112.27,-121.54 -36.51,-47.92 -183.83,-235.72 -200.44,-272.65 -17.45,-17.92 -36.96,-30.7 -32.3,-71.98 -2.74,-78.72 -88.39,-23.17 -99.95,7.4 -46.67,123.4 105.42,245.64 171.67,297.88 35.79,28.22 58.53,47.78 88.52,78.56 69.27,71.1 184,181.06 293.72,192.29z"/>
  <path class="fil20" d="M3327.14 998.98l40.57 3.8c21.14,-11.39 11.07,-5.16 29.73,-19.28 18.55,-121.87 36.86,-128.67 249.07,-118.79 -10.67,18.66 -10.47,14.29 -20.3,36.67 30.73,4.84 23.01,4.71 31.71,13.52l-17.64 75.45 44.99 20.05 19.65 2.33c17.78,-4.77 42.58,-32.82 56.16,-50.27l-1.31 -30.55 36.48 -13.74c-13.85,-29.35 -24.99,-36.89 -44.94,-53.32 -47.01,-38.72 -32.78,-16.62 -12.94,-52.65 -27.5,-8.44 -17.3,-0.86 -37.02,-22.24 22.55,-18.84 21.07,-5.5 36.07,-33.4 -39.33,-25.64 -126.63,-21.71 -177.69,-9.38l-3.58 -11.68c-0.51,-1.82 -2.61,-10.32 -3.38,-12.91l-6.88 -21.14c-0.65,-1.87 -1.32,-5.12 -2.86,-7.19 -213.91,81.13 -69.38,127.57 -208.33,179.83 11.39,28.13 9.45,14.28 31.6,32.77 -13.81,26.3 -39.43,48.81 -39.16,92.12z"/>
  <path class="fil21" d="M4234.12 4717.4l-0.15 44.8c1.6,66.88 -16.42,124.06 -33.85,183.33 -18.8,63.95 -35.36,106.31 -92.48,113.85 0.2,0.26 4.97,36.36 62.51,7.47 54.16,-27.2 65.54,-98.38 104.26,-142.62l36.46 -148.97 62.6 -227.41c12.11,-72.81 11.27,-143.26 -20.44,-202.38l-95.13 -4.44c23.06,49.82 13.42,128.09 -5.77,180.81 -23.25,63.9 -12.37,124.79 -18.01,195.56z"/>
  <polygon class="fil12" points="6319.7,4852.68 6634.56,4850.26 6632.33,4649.58 6315.42,4647.23 "/>
  <path class="fil6" d="M5298.36 2835.68c27.21,-80.01 -27.43,-149.03 -82.42,-169.85 -80.16,-30.36 -156.18,23.67 -175.52,81.22 -59.45,176.94 201.69,254.05 257.94,88.63z"/>
  <path class="fil22" d="M5271.99 4178.79c33.55,3.11 17.87,15.14 47.68,-67.43 26.34,-72.92 69.2,-199.18 76.78,-270.22 -151.04,-66.95 -318.72,157.78 -178.52,300.67 15.84,16.15 30.83,29.63 54.06,36.98z"/>
  <path class="fil23" d="M5271.99 4178.79l46.28 17.38c111.67,5.8 187.43,-47.24 209.44,-135.65 25.89,-103.95 -48.04,-210.42 -127.83,-217.02l-3.43 -2.36c-7.58,71.04 -50.44,197.3 -76.78,270.22 -29.81,82.57 -14.13,70.54 -47.68,67.43z"/>
  <path class="fil15" d="M5866.97 3034.18c-178.67,39.74 -115.99,281.05 43.88,248.84 164.68,-33.18 108.02,-282.62 -43.88,-248.84z"/>
  <path class="fil12" d="M5729.23 4544.33l-93.34 3.07c-63.52,144.29 -155.23,210.08 -268.53,287.91l-21.7 21.05c49.81,43.19 64.38,54.7 124.2,14.8 121.58,-81.11 209.59,-175.55 259.37,-326.83z"/>
  <path class="fil2" d="M2517.83 6075.4l8.95 3.66 49.52 -108.77c-35.9,-20.37 -51.79,-52.94 -89.25,-74.72 -31.81,-18.49 -71.78,-32.12 -110.26,-50.69l12.16 -5.8 -0.02 -4.44c-52.41,-2.03 -49.85,-22.6 -80.05,-61.33l-212.71 -202.06c16.61,36.93 163.93,224.73 200.44,272.65 45.09,59.17 54.03,74.17 112.27,121.54 29.31,23.84 113.88,83.11 108.95,109.96z"/>
  <path class="fil0" d="M3184.02 3798.58l32.59 -1.75 98.17 -214.27c14.94,-44.55 12.86,-16.35 -5.51,-27.19l-351.57 180.36c21.63,18.68 81.18,26.84 117.32,35.9 33.08,8.29 76.87,16.19 109,26.95z"/>
  <path class="fil24" d="M3168.34 2459.9c1.69,-2.11 3.7,-8.19 4.39,-6.83l23.53 -72.08c38.73,-139.2 145.95,-495.95 156.56,-591.7 -19.37,19.04 -29.51,47.72 -42.37,70.66 -13.97,24.91 -26.23,43.11 -40.73,67.98 -27.8,47.67 -56.58,86.21 -83.44,133.64 -27.36,48.3 -15.77,129.29 -12.56,192.08 4.16,80.95 -0.84,129.05 -5.38,206.25z"/>
  <path class="fil16" d="M3803.36 4813.01l199.3 6.33c-3.49,-37.26 -8.56,-25.27 -28.06,-46.48 4.61,-18.71 1.32,-12.57 11.47,-24.56 -11.88,-31.03 5.42,-7.57 -29.2,-30.39 -16.43,-10.83 -28.44,-15.91 -38.46,-28.9 -23.66,-30.65 -0.8,-64.72 10.6,-91.78 -11.83,-10.18 -20.62,-19.43 -37.06,-31.9 -16.16,-12.26 -24.87,-13.01 -31.67,-25.98 -20.58,16.77 12.35,1.97 -31.53,15.53 -3.97,1.22 -16.16,0.86 -24.44,0.88l-0.95 257.25z"/>
  <path class="fil25" d="M3397.44 983.5c92.07,-2.36 69.59,51.7 129.69,16.83 19.41,-11.27 23.27,-29.67 64.74,-18.95 48.08,12.42 0.47,34.17 93.4,29.02l-44.99 -20.05 17.64 -75.45c-8.7,-8.81 -0.98,-8.68 -31.71,-13.52 9.83,-22.38 9.63,-18.01 20.3,-36.67 -212.21,-9.88 -230.52,-3.08 -249.07,118.79z"/>
  <path class="fil14" d="M4073.44 4930.1l7.3 -38.28c-8.02,-14.73 -9.05,-17.68 -12.63,-38.79l-41.98 2.58c-17.29,-27.19 -0.99,-21.3 -23.47,-36.27l-199.3 -6.33 2.05 112.56 268.03 4.53z"/>
  <path class="fil25" d="M3696.33 1240.45l-17.74 18.98c-24.85,32.56 -44.39,88.49 -101.45,107.71 -38,12.79 -65.61,-0.18 -90.55,-19.67 -35.27,-27.58 -30.64,-28.33 -41.03,-73.77 -4.22,6.97 -4.69,3.5 -7.83,17.88 -0.84,3.83 -2.26,20.06 -2.67,24.59l-2.11 26.23c69.58,72.61 63.4,93.65 90.86,210.05 10.33,-9.23 4.87,-2.5 13.6,-15.64 31.29,-47.09 33.78,-115.95 82.57,-152.22 51.48,-38.27 117,-63.48 142.03,-119.41l-0.92 -22.24 -0.11 -25.36c-23.84,21.57 -12.59,25.51 -42.6,40.91 -21.49,-11.99 -7.35,2.78 -22.05,-18.04z"/>
  <path class="fil26" d="M4665.06 5030.51l280.65 0.96 1 -107.6c-173.11,1.02 -136.3,-25.09 -228.06,55.95 -9.18,8.1 -16.15,13.52 -26.63,22.81 -2.02,1.79 -12.42,11.36 -13.73,12.7 -9.61,9.84 -5.25,4.25 -13.23,15.18z"/>
  <path class="fil27" d="M3441.8 1213.15l0.95 34.51 2.81 26.04c10.39,45.44 5.76,46.19 41.03,73.77 24.94,19.49 52.55,32.46 90.55,19.67 57.06,-19.22 76.6,-75.15 101.45,-107.71l17.74 -18.98 -38.63 -51.86c-37.07,23.63 14.99,14.96 -55.35,53.3 -47.05,25.64 -56.95,64.87 -112.17,17.87l-11.57 -12.97c-13.29,-18.87 -6.41,-39.94 -36.81,-33.64z"/>
  <path class="fil28" d="M4193.64 4353.86c3.49,52.54 -11.19,93.63 -13.06,144.08 -2.3,62.16 14.53,93.94 23.91,149.01l29.63 70.45c5.64,-70.77 -5.24,-131.66 18.01,-195.56 19.19,-52.72 28.83,-130.99 5.77,-180.81 -39.53,-4.3 -63.19,-21.26 -64.26,12.83z"/>
  <path class="fil29" d="M2388.42 5540.17c-49.56,-13.48 -21.07,-13.76 -69.99,-8.5l-114.2 -0.82c-80.71,13.15 -26.91,-23.06 -45.17,10.16 70.82,66.61 106.47,144.63 151.95,129.14 -3.02,-31.96 -13.64,-35.32 -39.95,-44.66 32.27,-38.66 9.15,-23.85 19.48,-51.19 35.78,21.1 41.95,46.66 75.15,58 10.96,-7.9 3,-1.48 11.41,-12.6 1,-1.32 2.65,-3.63 3.73,-5.11 1.14,-1.57 2.74,-4.01 3.82,-5.55l7.84 -12.03c10.64,25.67 9.62,36.03 45.57,32.57 14.93,-52.15 -34.23,-57.51 -49.64,-89.41z"/>
  <path class="fil30" d="M1630.02 1708.35c19.77,30.31 132.87,14.63 176.23,14.66 60.99,0.03 144.88,21.84 132.6,-47.39 -38.23,-12.14 -132.72,-6.91 -182.7,-6.94 -28.44,-0.02 -162.14,-15.51 -126.13,39.67z"/>
  <path class="fil2" d="M4144.22 1663.45c87.4,23.42 120.91,-3.7 175.96,-29.14 -18.72,-26.93 -187.49,-141.28 -161.31,-112.6 -28.96,29.69 -15.49,99.05 -14.65,141.74z"/>
  <path class="fil0" d="M3376.63 4506.35l-0.9 43.31 254.39 -4.09c-40.03,-29.22 -166.47,-79.85 -195.68,-109.37 -54.66,1.44 -61.46,15.55 -57.81,70.15z"/>
  <path class="fil20" d="M3657.7 1188.59l38.63 51.86c14.7,20.82 0.56,6.05 22.05,18.04 30.01,-15.4 18.76,-19.34 42.6,-40.91l2.32 -12.5c2.47,-29.38 -0.64,-59.84 1.09,-89.87 1.77,-30.83 9.03,-36.46 5.68,-64.58 -4.19,-35.14 -27.57,4.42 -36.5,12.54 -26.04,23.67 -70.89,31.33 -75.87,125.42z"/>
  <path class="fil4" d="M2388.93 5834.64l0.02 4.44 121.51 6.2c-15.92,-74.2 -25.92,-166.93 -116.19,-125.35 -13,35.61 -6.26,75.67 -5.34,114.71z"/>
  <path class="fil31" d="M3387.7 1071.1c1.52,-12.31 3.28,-9.17 5,-14.43 11.2,-34.24 3.78,-39.11 16.73,-59.31 30.11,0.05 13.85,0.41 29.84,13.74l30.88 21.01c-1.11,60.21 -40.85,72.68 -82.45,38.99zm205.28 -72.45c30.62,7.83 30.62,29.16 22.73,64.91 -28.3,21.06 -16.9,23.28 -66.58,18.51 -38.51,-50.6 -13.88,-112.94 43.85,-83.42zm-225.27 4.13c-8.09,85.64 23.47,117.03 100.91,85.17 38.34,-81.38 -2.42,-44.31 32.66,-69.01l35.52 80.98 -24.27 10.87 5.45 9.24c58.04,-7.19 110.71,-31.24 116.46,-94.76 7.92,-0.16 37.54,0.81 42.56,0.02 24.44,-3.82 14.5,-1.85 27.92,-12.56l-19.65 -2.33c-92.93,5.15 -45.32,-16.6 -93.4,-29.02 -41.47,-10.72 -45.33,7.68 -64.74,18.95 -60.1,34.87 -37.62,-19.19 -129.69,-16.83 -18.66,14.12 -8.59,7.89 -29.73,19.28z"/>
  <path class="fil32" d="M2166.11 2001.74l6.63 12.58c46.74,7.52 95.51,4.18 142.95,4.21 54.93,0.04 91.85,12.8 89.48,-42.9 -28.77,-19.53 -84.68,-14.03 -131.36,-14.7 -54.22,-0.78 -105.86,-17.26 -107.7,40.81z"/>
  <path class="fil32" d="M1635.48 1087.72l-4.2 33.79c39.47,18 192.64,15.62 236.31,4.96l3.96 -34.67c-33.2,-24.28 -186.68,-21.58 -236.07,-4.08z"/>
  <path class="fil28" d="M2576.3 5970.29c12.08,-39.08 38.9,-73.85 31.24,-107.11 -21.98,-0.76 -72.59,-12.43 -97.08,-17.9l-121.51 -6.2 -12.16 5.8c38.48,18.57 78.45,32.2 110.26,50.69 37.46,21.78 53.35,54.35 89.25,74.72z"/>
  <path class="fil4" d="M4233.97 4762.2l0.15 -44.8 -29.63 -70.45c-40.73,42.09 -142.97,38.85 -85.32,133.45 40.11,2.69 75.57,-11.81 114.8,-18.2z"/>
  <path class="fil33" d="M1470.12 4696.17c47.84,-2.46 87.51,-15.91 131.42,-27.74 22.49,-6.06 39.03,-10.07 60.78,-14.71l45.61 -13.16c13.71,-7.53 7.12,-3.13 16.39,-12.35l-287.37 -0.89 33.17 68.85z"/>
  <path class="fil34" d="M2615.12 2198.83l-129.29 0.55 91.95 134.34c1.05,1.12 3.18,3.26 5.01,4.59 44.89,-27.71 38.96,-93.63 32.33,-139.48z"/>
  <path class="fil30" d="M1739.45 1972.66l-2.65 39.92c41.66,9.9 155.12,9.93 197.12,0.12 10.56,-67.3 -47.16,-54.81 -165.77,-50.55l-28.7 10.51z"/>
  <path class="fil35" d="M1404.09 1419.22c33.29,10.03 197.47,28.59 198.29,-20.01 0.78,-46.16 -169.98,-26.72 -198.86,-18.34l0.57 38.35z"/>
  <path class="fil35" d="M1749.3 1519.65c3.57,-32.93 -2.78,-47.69 -43.25,-47.69l-108.8 -1.47 -44.52 8.84 1.78 40.09 42.99 6.16 100.36 1.27 51.44 -7.2z"/>
  <path class="fil30" d="M1764.85 1215.8c28.53,24.51 74.4,14.72 141.6,14.72 50.47,0 63,-1.8 50.85,-49.21l-142.7 -5.11c-37.03,0 -52.16,1.25 -49.75,39.6z"/>
  <path class="fil36" d="M890.44 4474.92c18.22,-76.18 -48.54,-163.52 -87.38,-128.61 -34.48,31 13.24,142.62 87.38,128.61z"/>
  <path class="fil37" d="M2141 1974.39c-31.76,-18.68 -70.4,-13.77 -118.28,-13.56 -49.07,0.21 -66.77,3.82 -59.61,51.09 31.64,8.57 72.33,6.25 110.85,6.54 49.88,0.37 65.51,8 67.04,-44.07z"/>
  <path class="fil37" d="M1295.74 1124.91c34.26,6.67 184.07,30.49 175.14,-24.34 -4.69,-28.84 -31.04,-23.72 -64.85,-23.52 -63.59,0.38 -121.27,-16.96 -110.29,47.86z"/>
  <path class="fil37" d="M1896.44 1125.51c66.49,11.86 105.08,8.72 172.32,2.4 11.78,-62.45 -9.58,-50.41 -128.91,-50.41 -43.49,0 -49.88,9.51 -43.41,48.01z"/>
  <path class="fil37" d="M1332.97 1221.14c37.8,18.21 127.22,9.02 171.24,3.33 13.01,-61.15 -34.28,-48.33 -123.81,-48.33 -38.13,0 -56.62,3.93 -47.43,45z"/>
  <path class="fil8" d="M1889.75 1426.67c39.06,0 50.84,-2.54 46.86,-41.66 -36.76,-22.65 -131.5,-12.91 -175.76,-5.19l4.37 36.38c29.96,17.96 68.56,10.47 124.53,10.47z"/>
  <path class="fil15" d="M3761.09 1242.94l43.98 11.39 20.99 72.57 98.72 12.46c16.87,-17.43 10.74,-6.82 17.22,-30.34 -25.59,-26.35 -7.52,-6.12 -56.63,-10.32 -28.83,-36.12 4.9,-30.87 -51.97,-56.11 -15.7,-6.96 -20.06,-8.34 -33.21,-16.42 -4.14,-2.54 -13.81,-9.35 -16.02,-10.66 -16.95,-10.07 5.46,-0.13 -20.87,-10.43l-2.32 12.5 0.11 25.36z"/>
  <path class="fil28" d="M4002.66 4819.34c22.48,14.97 6.18,9.08 23.47,36.27l41.98 -2.58 14.99 -12.83c-8.86,-28.87 -13,-53.9 -22.38,-84.59l-74.65 -7.31c-10.15,11.99 -6.86,5.85 -11.47,24.56 19.5,21.21 24.57,9.22 28.06,46.48z"/>
  <path class="fil28" d="M4073.44 4930.1l-6.31 76.56c10.51,14.95 -20.36,14.11 26.95,10.31 29.25,-69.88 66.98,-64.62 82.56,-93.81 -34.9,-36.83 -33.79,-27.56 -74.17,-10.92 -14.01,-10.41 -13.35,-9.46 -21.73,-20.42l-7.3 38.28z"/>
  <path class="fil30" d="M1721.53 1616.6c59.59,-55.95 -107.61,-53.15 -123.38,-39.64 -63.25,54.17 103.12,58.66 123.38,39.64z"/>
  <path class="fil38" d="M3592.98 998.65c0.84,45.83 5.05,10.96 -8.2,27.76 -19.73,-12.2 -10.41,4.78 -15.53,-22.23l23.73 -5.53zm0 0c-57.73,-29.52 -82.36,32.82 -43.85,83.42 49.68,4.77 38.28,2.55 66.58,-18.51 7.89,-35.75 7.89,-57.08 -22.73,-64.91z"/>
  <path class="fil17" d="M3387.7 1071.1c41.6,33.69 81.34,21.22 82.45,-38.99l-30.88 -21.01c-15.99,-13.33 0.27,-13.69 -29.84,-13.74 -12.95,20.2 -5.53,25.07 -16.73,59.31 -1.72,5.26 -3.48,2.12 -5,14.43z"/>
  <path class="fil32" d="M1640.41 1216.41c31.68,21.51 74.49,21.2 105.39,-0.22 1.51,-44.14 -9.92,-40.07 -56.45,-40.07 -41.37,0 -48.19,0.16 -48.94,40.29z"/>
  <path class="fil32" d="M1632.11 1407.85c6.59,28.37 114.24,32.74 103.9,-14.37 -7.9,-36.03 -114.84,-32.68 -103.9,14.37z"/>
  <path class="fil39" d="M1831.3 1470.77c-48.78,0.03 -53.86,1.23 -50.16,47.23 30.19,8.85 70.78,9.41 99.98,-0.41 3.64,-46.18 -1.64,-46.85 -49.82,-46.82z"/>
  <path class="fil32" d="M1757.85 1616.6c44.66,19.55 135.32,2.53 88.05,-38.66 -10.95,-9.54 -119.8,-27.74 -88.05,38.66z"/>
  <path class="fil32" d="M2001.68 1722.88c37.18,0.49 41.3,5.03 61.52,-15.9l-6.12 -34.86 -34.01 -3.79c-35.15,-0.36 -34.59,-5.01 -60.57,12.58 -5.14,33.15 6.7,40.26 39.18,41.97z"/>
  <path class="fil32" d="M1976.87 1207.45c25.46,39.32 79.87,28.17 104.44,8.35 1.41,-57.84 -94.51,-54.17 -104.44,-8.35z"/>
  <path class="fil40" d="M3468.62 1087.95c7.31,37.25 0.61,12.25 -14.37,39.45 41.78,-2.12 24.57,-7.19 58.28,-16.61l24.27 -10.87 -35.52 -80.98c-35.08,24.7 5.68,-12.37 -32.66,69.01z"/>
  <path class="fil32" d="M1900 1804.53c40.39,30.49 112.41,11.53 68.02,-36.73 -45.02,-1.43 -62.83,-11.14 -68.02,36.73z"/>
  <path class="fil32" d="M2112.76 1918.09c15.65,-5.95 14.87,-4.06 25.93,-11.78l-6.95 -33.82c-79.65,-30.04 -113.89,49.74 -18.98,45.6z"/>
  <path class="fil41" d="M3620.36 1469.35c-2.81,32.59 -6.02,18.26 14.52,35.51 25.56,-8.28 25.85,-7.65 23.11,-35.66l-37.63 0.15z"/>
  <path class="fil29" d="M3592.98 998.65l-23.73 5.53c5.12,27.01 -4.2,10.03 15.53,22.23 13.25,-16.8 9.04,18.07 8.2,-27.76z"/>
  <ellipse class="fil42 str1" cx="3432.73" cy="1031.68" rx="14.68" ry="12.01"/>
 </g>
</svg>
